<svg xmlns="http://www.w3.org/2000/svg" xmlns:xlink="http://www.w3.org/1999/xlink" width="80" zoomAndPan="magnify" viewBox="0 0 60 60" height="80" preserveAspectRatio="xMidYMid meet" version="1.0"><defs><clipPath id="4e95c07800"><path d="M 30 0 C 13.429688 0 0 13.429688 0 30 C 0 46.570312 13.429688 60 30 60 C 46.570312 60 60 46.570312 60 30 C 60 13.429688 46.570312 0 30 0 " clip-rule="nonzero"/></clipPath><clipPath id="d31f890804"><path d="M 8.058594 22 L 31 22 L 31 33 L 8.058594 33 Z M 8.058594 22 " clip-rule="nonzero"/></clipPath><clipPath id="64f2467a87"><path d="M 25 8.304688 L 37 8.304688 L 37 29 L 25 29 Z M 25 8.304688 " clip-rule="nonzero"/></clipPath><clipPath id="9ab59f44a7"><path d="M 18 29 L 29 29 L 29 51.804688 L 18 51.804688 Z M 18 29 " clip-rule="nonzero"/></clipPath></defs><g clip-path="url(#4e95c07800)"><rect x="-6" width="72" fill="#fffbfb" y="-6" height="72" fill-opacity="1"/></g><g clip-path="url(#d31f890804)"><path fill="#98198e" d="M 19.242188 32.066406 C 19.773438 31.972656 20.273438 31.824219 20.742188 31.644531 C 21.683594 31.28125 22.515625 30.8125 23.285156 30.320312 C 24.054688 29.828125 24.769531 29.316406 25.445312 28.804688 C 25.785156 28.550781 28.757812 26.273438 29.199219 25.96875 C 29.59375 25.691406 29.980469 25.441406 30.367188 25.21875 C 30.050781 24.992188 29.75 24.765625 29.460938 24.542969 C 29.171875 24.691406 28.878906 24.847656 28.589844 25.015625 C 27.972656 25.371094 24.769531 27.476562 24.585938 27.597656 C 23.890625 28.050781 23.175781 28.511719 22.4375 28.929688 C 22.066406 29.140625 21.6875 29.335938 21.304688 29.519531 C 20.921875 29.699219 20.535156 29.863281 20.140625 29.992188 C 19.75 30.125 19.355469 30.222656 18.964844 30.273438 C 18.578125 30.324219 18.199219 30.324219 17.839844 30.265625 C 17.664062 30.234375 17.488281 30.1875 17.320312 30.125 C 17.277344 30.109375 17.238281 30.09375 17.195312 30.078125 C 17.175781 30.070312 17.152344 30.058594 17.132812 30.050781 L 17.101562 30.035156 L 17.097656 30.035156 L 17.078125 30.023438 L 16.996094 29.984375 L 16.941406 29.957031 C 16.925781 29.949219 16.902344 29.9375 16.882812 29.925781 C 16.863281 29.914062 16.84375 29.902344 16.820312 29.890625 C 16.5 29.707031 16.214844 29.472656 15.976562 29.199219 C 15.742188 28.921875 15.558594 28.601562 15.433594 28.253906 C 15.304688 27.910156 15.242188 27.535156 15.238281 27.160156 C 15.230469 26.410156 15.480469 25.65625 15.941406 25.113281 C 16.171875 24.84375 16.449219 24.621094 16.765625 24.460938 C 17.082031 24.300781 17.433594 24.203125 17.8125 24.160156 C 18.570312 24.082031 19.40625 24.238281 20.210938 24.539062 C 20.613281 24.6875 21.011719 24.867188 21.398438 25.074219 C 21.601562 25.1875 21.804688 25.296875 22.007812 25.40625 C 22.210938 25.519531 22.417969 25.636719 22.617188 25.75 C 22.75 25.824219 22.882812 25.898438 23.015625 25.976562 C 23.371094 26.179688 23.816406 26.128906 24.113281 25.851562 L 24.128906 25.835938 C 24.570312 25.421875 24.5 24.703125 23.984375 24.386719 C 23.847656 24.300781 23.710938 24.21875 23.574219 24.136719 C 23.371094 24.011719 23.164062 23.890625 22.957031 23.765625 C 22.855469 23.703125 22.75 23.644531 22.648438 23.582031 L 22.492188 23.492188 L 22.324219 23.394531 C 21.875 23.148438 21.402344 22.917969 20.90625 22.726562 C 20.410156 22.53125 19.886719 22.371094 19.335938 22.269531 C 18.785156 22.167969 18.203125 22.128906 17.609375 22.1875 C 17.019531 22.242188 16.414062 22.402344 15.859375 22.683594 C 15.300781 22.960938 14.796875 23.359375 14.402344 23.835938 C 14 24.308594 13.707031 24.855469 13.515625 25.429688 C 13.417969 25.71875 13.347656 26.019531 13.304688 26.320312 C 12.984375 25.570312 12.304688 24.980469 11.433594 24.792969 C 10.027344 24.492188 8.644531 25.363281 8.351562 26.734375 C 8.054688 28.105469 8.957031 29.460938 10.363281 29.757812 C 11.660156 30.035156 12.929688 29.324219 13.355469 28.140625 C 13.414062 28.410156 13.488281 28.679688 13.589844 28.9375 C 13.800781 29.496094 14.117188 30.015625 14.511719 30.464844 C 14.910156 30.910156 15.386719 31.28125 15.898438 31.550781 C 15.933594 31.570312 15.964844 31.585938 15.996094 31.601562 C 16.027344 31.621094 16.058594 31.636719 16.097656 31.652344 L 16.203125 31.703125 L 16.339844 31.761719 L 16.390625 31.785156 C 16.425781 31.796875 16.460938 31.8125 16.496094 31.824219 C 16.5625 31.851562 16.632812 31.875 16.703125 31.898438 C 16.984375 31.992188 17.273438 32.058594 17.5625 32.097656 C 18.136719 32.175781 18.707031 32.152344 19.242188 32.066406 " fill-opacity="1" fill-rule="nonzero"/></g><g clip-path="url(#64f2467a87)"><path fill="#18abe3" d="M 26.398438 20.394531 C 26.652344 20.871094 26.949219 21.296875 27.269531 21.683594 C 27.902344 22.460938 28.609375 23.101562 29.316406 23.679688 C 30.023438 24.253906 30.738281 24.773438 31.433594 25.253906 C 31.785156 25.496094 34.878906 27.601562 35.308594 27.925781 C 35.695312 28.214844 36.054688 28.503906 36.386719 28.800781 C 36.507812 28.429688 36.628906 28.074219 36.753906 27.734375 C 36.523438 27.503906 36.28125 27.28125 36.03125 27.054688 C 35.503906 26.582031 32.496094 24.207031 32.324219 24.066406 C 31.675781 23.550781 31.015625 23.019531 30.386719 22.449219 C 30.070312 22.164062 29.765625 21.867188 29.476562 21.5625 C 29.183594 21.253906 28.90625 20.9375 28.660156 20.605469 C 28.414062 20.277344 28.195312 19.933594 28.027344 19.582031 C 27.859375 19.230469 27.742188 18.871094 27.691406 18.515625 C 27.664062 18.335938 27.652344 18.15625 27.660156 17.980469 C 27.664062 17.9375 27.667969 17.890625 27.667969 17.847656 C 27.671875 17.824219 27.675781 17.800781 27.675781 17.78125 L 27.679688 17.746094 L 27.679688 17.738281 L 27.683594 17.71875 L 27.695312 17.628906 L 27.707031 17.570312 C 27.707031 17.550781 27.714844 17.527344 27.71875 17.503906 C 27.722656 17.480469 27.726562 17.457031 27.730469 17.4375 C 27.808594 17.074219 27.941406 16.730469 28.132812 16.421875 C 28.324219 16.117188 28.574219 15.839844 28.867188 15.617188 C 29.160156 15.390625 29.496094 15.214844 29.855469 15.09375 C 30.566406 14.855469 31.367188 14.859375 32.027344 15.128906 C 32.359375 15.261719 32.65625 15.453125 32.90625 15.703125 C 33.160156 15.953125 33.363281 16.257812 33.519531 16.601562 C 33.828125 17.292969 33.9375 18.132812 33.898438 18.984375 C 33.882812 19.410156 33.832031 19.84375 33.753906 20.277344 C 33.710938 20.503906 33.667969 20.730469 33.625 20.957031 C 33.578125 21.183594 33.53125 21.410156 33.484375 21.636719 C 33.457031 21.785156 33.425781 21.933594 33.390625 22.082031 C 33.308594 22.480469 33.492188 22.886719 33.851562 23.082031 L 33.867188 23.089844 C 34.398438 23.382812 35.066406 23.09375 35.210938 22.507812 C 35.25 22.351562 35.285156 22.199219 35.324219 22.042969 C 35.378906 21.808594 35.433594 21.578125 35.488281 21.34375 C 35.515625 21.226562 35.539062 21.113281 35.566406 20.996094 L 35.605469 20.816406 L 35.644531 20.632812 C 35.742188 20.128906 35.816406 19.613281 35.847656 19.085938 C 35.882812 18.554688 35.871094 18.011719 35.796875 17.457031 C 35.726562 16.90625 35.582031 16.34375 35.34375 15.800781 C 35.109375 15.261719 34.769531 14.738281 34.328125 14.296875 C 33.890625 13.859375 33.355469 13.503906 32.777344 13.277344 C 32.199219 13.046875 31.585938 12.933594 30.980469 12.929688 C 30.671875 12.929688 30.363281 12.953125 30.0625 13.003906 C 30.679688 12.472656 31.035156 11.648438 30.945312 10.765625 C 30.792969 9.34375 29.539062 8.304688 28.132812 8.449219 C 26.730469 8.59375 25.714844 9.867188 25.863281 11.289062 C 26 12.597656 27.074219 13.582031 28.335938 13.617188 C 28.09375 13.753906 27.863281 13.910156 27.644531 14.085938 C 27.175781 14.457031 26.777344 14.917969 26.472656 15.429688 C 26.164062 15.941406 25.957031 16.507812 25.859375 17.078125 C 25.851562 17.113281 25.84375 17.148438 25.839844 17.183594 C 25.832031 17.21875 25.828125 17.253906 25.824219 17.296875 L 25.808594 17.410156 L 25.796875 17.5 L 25.792969 17.558594 L 25.789062 17.613281 C 25.785156 17.652344 25.78125 17.6875 25.78125 17.722656 C 25.777344 17.796875 25.773438 17.871094 25.773438 17.945312 C 25.773438 18.238281 25.796875 18.53125 25.851562 18.816406 C 25.949219 19.386719 26.152344 19.917969 26.398438 20.394531 " fill-opacity="1" fill-rule="nonzero"/></g><path fill="#85c536" d="M 43.324219 43.796875 C 43.4375 43.542969 43.535156 43.285156 43.605469 43.015625 C 43.765625 42.441406 43.816406 41.835938 43.761719 41.242188 C 43.703125 40.648438 43.539062 40.070312 43.28125 39.546875 C 43.269531 39.515625 43.25 39.484375 43.234375 39.453125 C 43.21875 39.417969 43.203125 39.386719 43.183594 39.351562 L 43.125 39.25 L 43.082031 39.171875 L 43.050781 39.121094 L 43.023438 39.074219 C 43 39.042969 42.984375 39.011719 42.960938 38.980469 C 42.921875 38.921875 42.878906 38.859375 42.835938 38.800781 C 42.664062 38.5625 42.472656 38.339844 42.261719 38.136719 C 41.84375 37.734375 41.367188 37.421875 40.882812 37.183594 C 40.398438 36.945312 39.90625 36.777344 39.417969 36.644531 C 38.445312 36.390625 37.496094 36.28125 36.582031 36.230469 C 35.667969 36.175781 34.785156 36.175781 33.9375 36.195312 C 33.511719 36.203125 29.761719 36.304688 29.222656 36.296875 C 28.742188 36.289062 28.277344 36.261719 27.835938 36.214844 C 27.957031 36.585938 28.066406 36.945312 28.167969 37.292969 C 28.492188 37.347656 28.820312 37.386719 29.152344 37.421875 C 29.859375 37.496094 33.695312 37.664062 33.917969 37.671875 C 34.75 37.714844 35.597656 37.757812 36.445312 37.851562 C 36.867188 37.898438 37.289062 37.960938 37.707031 38.035156 C 38.125 38.113281 38.535156 38.207031 38.929688 38.332031 C 39.324219 38.453125 39.703125 38.605469 40.046875 38.792969 C 40.390625 38.976562 40.699219 39.199219 40.949219 39.457031 C 41.078125 39.585938 41.191406 39.726562 41.289062 39.875 C 41.316406 39.910156 41.339844 39.949219 41.363281 39.984375 C 41.375 40.003906 41.386719 40.023438 41.398438 40.042969 L 41.414062 40.074219 L 41.417969 40.078125 L 41.425781 40.097656 L 41.46875 40.175781 L 41.496094 40.230469 C 41.503906 40.246094 41.515625 40.269531 41.527344 40.292969 C 41.535156 40.3125 41.546875 40.332031 41.554688 40.355469 C 41.707031 40.691406 41.800781 41.046875 41.828125 41.410156 C 41.855469 41.769531 41.816406 42.136719 41.710938 42.488281 C 41.609375 42.84375 41.4375 43.183594 41.222656 43.488281 C 40.785156 44.101562 40.136719 44.5625 39.445312 44.734375 C 39.097656 44.820312 38.742188 44.835938 38.390625 44.78125 C 38.039062 44.726562 37.695312 44.597656 37.367188 44.410156 C 36.707031 44.035156 36.125 43.417969 35.648438 42.707031 C 35.410156 42.351562 35.195312 41.96875 35.003906 41.574219 C 34.90625 41.367188 34.808594 41.160156 34.707031 40.949219 C 34.609375 40.738281 34.511719 40.527344 34.414062 40.320312 C 34.351562 40.179688 34.289062 40.042969 34.226562 39.902344 C 34.0625 39.53125 33.671875 39.3125 33.265625 39.363281 L 33.246094 39.367188 C 32.644531 39.441406 32.277344 40.066406 32.507812 40.625 C 32.566406 40.769531 32.628906 40.917969 32.691406 41.0625 C 32.78125 41.285156 32.875 41.503906 32.96875 41.726562 C 33.015625 41.835938 33.066406 41.945312 33.113281 42.054688 L 33.183594 42.21875 L 33.265625 42.394531 C 33.480469 42.859375 33.726562 43.316406 34.011719 43.765625 C 34.300781 44.210938 34.628906 44.648438 35.015625 45.050781 C 35.398438 45.453125 35.847656 45.824219 36.363281 46.125 C 36.875 46.425781 37.457031 46.652344 38.074219 46.75 C 38.6875 46.847656 39.332031 46.820312 39.933594 46.667969 C 40.535156 46.515625 41.097656 46.246094 41.59375 45.898438 C 41.84375 45.71875 42.074219 45.519531 42.289062 45.300781 C 42.105469 46.09375 42.304688 46.96875 42.898438 47.628906 C 43.863281 48.691406 45.492188 48.796875 46.542969 47.859375 C 47.59375 46.921875 47.664062 45.300781 46.703125 44.234375 C 45.816406 43.253906 44.367188 43.089844 43.324219 43.796875 " fill-opacity="1" fill-rule="nonzero"/><path fill="#f06f25" d="M 51.738281 21.507812 C 51.167969 20.222656 49.636719 19.65625 48.320312 20.234375 C 47.109375 20.769531 46.503906 22.089844 46.855469 23.292969 C 46.652344 23.109375 46.429688 22.9375 46.195312 22.785156 C 45.695312 22.457031 45.132812 22.21875 44.546875 22.089844 C 43.960938 21.960938 43.355469 21.9375 42.78125 22.019531 C 42.746094 22.023438 42.707031 22.03125 42.671875 22.035156 C 42.636719 22.042969 42.601562 22.046875 42.5625 22.054688 L 42.445312 22.078125 L 42.359375 22.09375 L 42.300781 22.109375 L 42.246094 22.121094 C 42.210938 22.128906 42.175781 22.136719 42.140625 22.148438 C 42.066406 22.167969 41.996094 22.1875 41.925781 22.210938 C 41.644531 22.296875 41.371094 22.414062 41.117188 22.550781 C 40.601562 22.820312 40.15625 23.175781 39.777344 23.558594 C 39.398438 23.945312 39.082031 24.355469 38.808594 24.777344 C 38.261719 25.617188 37.867188 26.484375 37.535156 27.332031 C 37.203125 28.179688 36.925781 29.011719 36.683594 29.820312 C 36.558594 30.226562 35.5 33.800781 35.324219 34.308594 C 35.167969 34.761719 35 35.195312 34.820312 35.597656 C 35.210938 35.597656 35.589844 35.601562 35.953125 35.613281 C 36.101562 35.324219 36.242188 35.027344 36.378906 34.726562 C 36.667969 34.078125 38.015625 30.5 38.09375 30.296875 C 38.386719 29.519531 38.691406 28.734375 39.042969 27.960938 C 39.21875 27.578125 39.410156 27.195312 39.609375 26.824219 C 39.8125 26.453125 40.03125 26.09375 40.269531 25.761719 C 40.511719 25.425781 40.773438 25.113281 41.058594 24.847656 C 41.339844 24.578125 41.648438 24.355469 41.972656 24.195312 C 42.132812 24.117188 42.304688 24.054688 42.476562 24.003906 C 42.519531 23.992188 42.5625 23.980469 42.605469 23.972656 C 42.628906 23.964844 42.648438 23.960938 42.671875 23.957031 L 42.703125 23.949219 L 42.710938 23.949219 L 42.734375 23.945312 L 42.820312 23.929688 L 42.882812 23.917969 C 42.898438 23.917969 42.925781 23.914062 42.949219 23.910156 C 42.972656 23.90625 42.992188 23.90625 43.015625 23.902344 C 43.386719 23.863281 43.757812 23.882812 44.109375 23.96875 C 44.464844 24.054688 44.800781 24.207031 45.109375 24.414062 C 45.414062 24.621094 45.6875 24.886719 45.914062 25.1875 C 46.363281 25.789062 46.605469 26.542969 46.554688 27.253906 C 46.527344 27.605469 46.433594 27.949219 46.273438 28.261719 C 46.113281 28.578125 45.882812 28.863281 45.601562 29.117188 C 45.039062 29.625 44.269531 29.984375 43.441406 30.214844 C 43.027344 30.328125 42.597656 30.414062 42.160156 30.472656 C 41.929688 30.503906 41.699219 30.53125 41.472656 30.5625 C 41.238281 30.589844 41.007812 30.613281 40.777344 30.640625 C 40.625 30.660156 40.472656 30.675781 40.320312 30.691406 C 39.914062 30.734375 39.585938 31.035156 39.507812 31.433594 L 39.503906 31.453125 C 39.390625 32.046875 39.875 32.585938 40.480469 32.542969 C 40.636719 32.53125 40.796875 32.519531 40.957031 32.503906 C 41.195312 32.484375 41.4375 32.464844 41.675781 32.445312 C 41.792969 32.433594 41.914062 32.421875 42.035156 32.410156 L 42.214844 32.394531 L 42.40625 32.371094 C 42.917969 32.3125 43.433594 32.222656 43.949219 32.085938 C 44.464844 31.953125 44.984375 31.777344 45.488281 31.539062 C 45.996094 31.296875 46.488281 30.988281 46.933594 30.597656 C 47.378906 30.203125 47.773438 29.722656 48.058594 29.171875 C 48.34375 28.621094 48.515625 28.003906 48.554688 27.386719 C 48.597656 26.769531 48.515625 26.15625 48.332031 25.582031 C 48.238281 25.289062 48.117188 25.007812 47.976562 24.738281 C 48.675781 25.15625 49.574219 25.238281 50.390625 24.878906 C 51.707031 24.296875 52.308594 22.789062 51.738281 21.507812 " fill-opacity="1" fill-rule="nonzero"/><g clip-path="url(#9ab59f44a7)"><path fill="#ea097f" d="M 27.773438 38.078125 C 27.542969 37.199219 27.273438 36.363281 26.992188 35.566406 C 26.851562 35.167969 25.59375 31.652344 25.4375 31.140625 C 25.292969 30.683594 25.175781 30.234375 25.082031 29.804688 C 24.765625 30.03125 24.457031 30.25 24.15625 30.453125 C 24.207031 30.773438 24.269531 31.097656 24.335938 31.421875 C 24.484375 32.113281 25.511719 35.792969 25.570312 36.007812 C 25.789062 36.804688 26.007812 37.621094 26.179688 38.449219 C 26.265625 38.863281 26.335938 39.28125 26.394531 39.699219 C 26.449219 40.117188 26.484375 40.535156 26.488281 40.949219 C 26.492188 41.359375 26.464844 41.765625 26.394531 42.148438 C 26.324219 42.527344 26.207031 42.886719 26.035156 43.207031 C 25.953125 43.367188 25.855469 43.515625 25.742188 43.65625 C 25.714844 43.691406 25.6875 43.726562 25.65625 43.761719 C 25.644531 43.777344 25.628906 43.792969 25.613281 43.808594 L 25.589844 43.835938 L 25.570312 43.855469 L 25.507812 43.921875 L 25.464844 43.960938 C 25.453125 43.976562 25.433594 43.992188 25.417969 44.007812 C 25.398438 44.023438 25.382812 44.039062 25.367188 44.054688 C 25.085938 44.300781 24.777344 44.503906 24.441406 44.640625 C 24.105469 44.777344 23.742188 44.851562 23.371094 44.863281 C 23 44.875 22.625 44.820312 22.265625 44.710938 C 21.542969 44.484375 20.902344 44.015625 20.523438 43.414062 C 20.335938 43.109375 20.207031 42.78125 20.152344 42.433594 C 20.097656 42.082031 20.113281 41.71875 20.191406 41.347656 C 20.347656 40.609375 20.757812 39.867188 21.289062 39.199219 C 21.558594 38.863281 21.855469 38.542969 22.171875 38.238281 C 22.34375 38.082031 22.511719 37.921875 22.679688 37.765625 C 22.851562 37.609375 23.023438 37.449219 23.191406 37.292969 C 23.304688 37.191406 23.417969 37.089844 23.53125 36.988281 C 23.835938 36.71875 23.925781 36.28125 23.753906 35.910156 L 23.742188 35.894531 C 23.484375 35.347656 22.773438 35.195312 22.3125 35.582031 C 22.191406 35.683594 22.066406 35.789062 21.945312 35.890625 C 21.765625 36.046875 21.582031 36.203125 21.402344 36.363281 C 21.3125 36.441406 21.222656 36.519531 21.132812 36.597656 L 20.996094 36.71875 L 20.851562 36.847656 C 20.476562 37.195312 20.113281 37.566406 19.773438 37.976562 C 19.433594 38.386719 19.121094 38.832031 18.851562 39.324219 C 18.585938 39.8125 18.367188 40.351562 18.238281 40.929688 C 18.109375 41.503906 18.074219 42.125 18.171875 42.738281 C 18.265625 43.351562 18.492188 43.949219 18.824219 44.472656 C 19.15625 44.996094 19.585938 45.445312 20.074219 45.804688 C 20.324219 45.984375 20.585938 46.144531 20.859375 46.277344 C 20.046875 46.347656 19.269531 46.808594 18.824219 47.574219 C 18.101562 48.8125 18.507812 50.386719 19.726562 51.089844 C 20.949219 51.792969 22.523438 51.359375 23.242188 50.121094 C 23.90625 48.980469 23.617188 47.558594 22.617188 46.792969 C 22.894531 46.820312 23.175781 46.832031 23.453125 46.816406 C 24.050781 46.789062 24.648438 46.652344 25.199219 46.414062 C 25.75 46.179688 26.25 45.84375 26.671875 45.441406 C 26.695312 45.414062 26.722656 45.390625 26.746094 45.363281 C 26.773438 45.339844 26.796875 45.316406 26.828125 45.285156 L 26.90625 45.199219 L 26.964844 45.132812 L 27.007812 45.089844 L 27.042969 45.046875 C 27.066406 45.019531 27.089844 44.992188 27.113281 44.960938 C 27.160156 44.90625 27.207031 44.847656 27.25 44.789062 C 27.425781 44.550781 27.578125 44.300781 27.703125 44.039062 C 27.960938 43.519531 28.109375 42.972656 28.191406 42.441406 C 28.269531 41.90625 28.277344 41.390625 28.253906 40.890625 C 28.195312 39.890625 28.007812 38.957031 27.773438 38.078125 " fill-opacity="1" fill-rule="nonzero"/></g></svg>