<svg xmlns="http://www.w3.org/2000/svg" xmlns:xlink="http://www.w3.org/1999/xlink" width="100" zoomAndPan="magnify" viewBox="0 0 75 74.999997" height="100" preserveAspectRatio="xMidYMid meet" version="1.0"><defs><clipPath id="ad825c03f8"><path d="M 7.058594 7.058594 L 67.808594 7.058594 L 67.808594 67.808594 L 7.058594 67.808594 Z M 7.058594 7.058594 " clip-rule="nonzero"/></clipPath><clipPath id="25332de6ed"><path d="M 12.21875 12.21875 L 62.46875 12.21875 L 62.46875 62.46875 L 12.21875 62.46875 Z M 12.21875 12.21875 " clip-rule="nonzero"/></clipPath></defs><g clip-path="url(#ad825c03f8)"><path fill="#008037" d="M 37.433594 7.058594 C 20.65625 7.058594 7.058594 20.65625 7.058594 37.433594 C 7.058594 54.207031 20.65625 67.808594 37.433594 67.808594 C 54.207031 67.808594 67.808594 54.207031 67.808594 37.433594 C 67.808594 20.65625 54.207031 7.058594 37.433594 7.058594 " fill-opacity="1" fill-rule="nonzero"/></g><g clip-path="url(#25332de6ed)"><path fill="#ffffff" d="M 37.34375 62.46875 C 36.523438 62.46875 35.699219 62.429688 34.882812 62.347656 C 34.0625 62.269531 33.25 62.148438 32.441406 61.988281 C 31.636719 61.828125 30.839844 61.625 30.050781 61.386719 C 29.265625 61.148438 28.488281 60.871094 27.730469 60.558594 C 26.96875 60.242188 26.226562 59.890625 25.5 59.503906 C 24.773438 59.113281 24.070312 58.691406 23.386719 58.234375 C 22.703125 57.777344 22.042969 57.289062 21.40625 56.765625 C 20.769531 56.246094 20.160156 55.691406 19.578125 55.109375 C 18.996094 54.527344 18.445312 53.917969 17.921875 53.285156 C 17.402344 52.648438 16.910156 51.988281 16.453125 51.304688 C 15.996094 50.621094 15.574219 49.914062 15.1875 49.1875 C 14.796875 48.460938 14.445312 47.71875 14.132812 46.960938 C 13.816406 46.199219 13.539062 45.425781 13.300781 44.636719 C 13.0625 43.851562 12.863281 43.054688 12.703125 42.246094 C 12.542969 41.4375 12.421875 40.625 12.339844 39.808594 C 12.261719 38.988281 12.21875 38.167969 12.21875 37.34375 C 12.21875 36.523438 12.261719 35.699219 12.339844 34.882812 C 12.421875 34.0625 12.542969 33.25 12.703125 32.441406 C 12.863281 31.636719 13.0625 30.839844 13.300781 30.050781 C 13.539062 29.265625 13.816406 28.488281 14.132812 27.730469 C 14.445312 26.96875 14.796875 26.226562 15.1875 25.5 C 15.574219 24.773438 15.996094 24.070312 16.453125 23.386719 C 16.910156 22.703125 17.402344 22.042969 17.921875 21.40625 C 18.445312 20.769531 18.996094 20.160156 19.578125 19.578125 C 20.160156 18.996094 20.769531 18.445312 21.40625 17.921875 C 22.042969 17.402344 22.703125 16.910156 23.386719 16.453125 C 24.070312 15.996094 24.773438 15.574219 25.5 15.1875 C 26.226562 14.796875 26.96875 14.445312 27.730469 14.132812 C 28.488281 13.816406 29.265625 13.539062 30.050781 13.300781 C 30.839844 13.0625 31.636719 12.863281 32.441406 12.703125 C 33.25 12.542969 34.0625 12.421875 34.882812 12.339844 C 35.699219 12.261719 36.523438 12.21875 37.34375 12.21875 C 38.167969 12.21875 38.988281 12.261719 39.808594 12.339844 C 40.625 12.421875 41.4375 12.542969 42.246094 12.703125 C 43.054688 12.863281 43.851562 13.0625 44.636719 13.300781 C 45.425781 13.539062 46.199219 13.816406 46.960938 14.132812 C 47.71875 14.445312 48.460938 14.796875 49.1875 15.1875 C 49.914062 15.574219 50.621094 15.996094 51.304688 16.453125 C 51.988281 16.910156 52.648438 17.402344 53.285156 17.921875 C 53.917969 18.445312 54.527344 18.996094 55.109375 19.578125 C 55.691406 20.160156 56.246094 20.769531 56.765625 21.40625 C 57.289062 22.042969 57.777344 22.703125 58.234375 23.386719 C 58.691406 24.070312 59.113281 24.773438 59.503906 25.5 C 59.890625 26.226562 60.242188 26.96875 60.558594 27.730469 C 60.871094 28.488281 61.148438 29.265625 61.386719 30.050781 C 61.625 30.839844 61.828125 31.636719 61.988281 32.441406 C 62.148438 33.25 62.269531 34.0625 62.347656 34.882812 C 62.429688 35.699219 62.46875 36.523438 62.46875 37.34375 C 62.46875 38.167969 62.425781 38.988281 62.347656 39.804688 C 62.265625 40.625 62.144531 41.4375 61.980469 42.246094 C 61.820312 43.050781 61.621094 43.847656 61.382812 44.636719 C 61.140625 45.421875 60.863281 46.195312 60.550781 46.957031 C 60.234375 47.714844 59.882812 48.457031 59.496094 49.183594 C 59.105469 49.90625 58.683594 50.613281 58.226562 51.296875 C 57.769531 51.980469 57.28125 52.640625 56.757812 53.277344 C 56.234375 53.910156 55.683594 54.519531 55.101562 55.101562 C 54.519531 55.683594 53.910156 56.234375 53.277344 56.757812 C 52.640625 57.28125 51.980469 57.769531 51.296875 58.226562 C 50.613281 58.683594 49.90625 59.105469 49.183594 59.496094 C 48.457031 59.882812 47.714844 60.234375 46.957031 60.550781 C 46.195312 60.863281 45.421875 61.140625 44.636719 61.382812 C 43.847656 61.621094 43.050781 61.820312 42.246094 61.980469 C 41.4375 62.144531 40.625 62.265625 39.804688 62.347656 C 38.988281 62.425781 38.167969 62.46875 37.34375 62.46875 Z M 37.34375 13.894531 C 36.578125 13.894531 35.808594 13.933594 35.046875 14.007812 C 34.28125 14.082031 33.523438 14.195312 32.769531 14.34375 C 32.015625 14.496094 31.273438 14.679688 30.539062 14.90625 C 29.800781 15.128906 29.082031 15.386719 28.371094 15.679688 C 27.660156 15.972656 26.96875 16.300781 26.289062 16.664062 C 25.613281 17.027344 24.957031 17.421875 24.316406 17.847656 C 23.679688 18.273438 23.0625 18.730469 22.46875 19.21875 C 21.875 19.703125 21.304688 20.21875 20.761719 20.761719 C 20.21875 21.304688 19.703125 21.875 19.21875 22.46875 C 18.730469 23.0625 18.273438 23.679688 17.847656 24.316406 C 17.421875 24.957031 17.027344 25.613281 16.664062 26.289062 C 16.300781 26.96875 15.972656 27.660156 15.679688 28.371094 C 15.386719 29.082031 15.128906 29.800781 14.90625 30.539062 C 14.679688 31.273438 14.496094 32.015625 14.34375 32.769531 C 14.195312 33.523438 14.082031 34.28125 14.007812 35.046875 C 13.933594 35.808594 13.894531 36.578125 13.894531 37.34375 C 13.894531 38.113281 13.933594 38.878906 14.007812 39.644531 C 14.082031 40.40625 14.195312 41.167969 14.34375 41.917969 C 14.496094 42.671875 14.679688 43.417969 14.90625 44.152344 C 15.128906 44.886719 15.386719 45.609375 15.679688 46.320312 C 15.972656 47.027344 16.300781 47.722656 16.664062 48.398438 C 17.027344 49.078125 17.421875 49.734375 17.847656 50.371094 C 18.273438 51.011719 18.730469 51.628906 19.21875 52.222656 C 19.703125 52.816406 20.21875 53.382812 20.761719 53.925781 C 21.304688 54.46875 21.875 54.984375 22.46875 55.472656 C 23.0625 55.957031 23.679688 56.414062 24.316406 56.84375 C 24.957031 57.269531 25.613281 57.664062 26.289062 58.027344 C 26.96875 58.386719 27.660156 58.714844 28.371094 59.007812 C 29.082031 59.304688 29.800781 59.5625 30.539062 59.785156 C 31.273438 60.007812 32.015625 60.195312 32.769531 60.34375 C 33.523438 60.492188 34.28125 60.605469 35.046875 60.683594 C 35.808594 60.757812 36.578125 60.792969 37.34375 60.792969 C 38.113281 60.792969 38.878906 60.757812 39.644531 60.683594 C 40.40625 60.605469 41.167969 60.492188 41.917969 60.34375 C 42.671875 60.195312 43.417969 60.007812 44.152344 59.785156 C 44.886719 59.5625 45.609375 59.304688 46.320312 59.007812 C 47.027344 58.714844 47.722656 58.386719 48.398438 58.027344 C 49.078125 57.664062 49.734375 57.269531 50.371094 56.84375 C 51.011719 56.414062 51.628906 55.957031 52.222656 55.472656 C 52.816406 54.984375 53.382812 54.46875 53.925781 53.925781 C 54.46875 53.382812 54.984375 52.816406 55.472656 52.222656 C 55.957031 51.628906 56.414062 51.011719 56.84375 50.371094 C 57.269531 49.734375 57.664062 49.078125 58.027344 48.398438 C 58.386719 47.722656 58.714844 47.027344 59.007812 46.320312 C 59.304688 45.609375 59.5625 44.886719 59.785156 44.152344 C 60.007812 43.417969 60.195312 42.671875 60.34375 41.917969 C 60.492188 41.167969 60.605469 40.40625 60.683594 39.644531 C 60.757812 38.878906 60.792969 38.113281 60.792969 37.34375 C 60.792969 36.578125 60.753906 35.8125 60.679688 35.046875 C 60.601562 34.28125 60.488281 33.523438 60.339844 32.773438 C 60.1875 32.019531 60.003906 31.273438 59.777344 30.539062 C 59.554688 29.804688 59.296875 29.085938 59.003906 28.375 C 58.707031 27.664062 58.378906 26.972656 58.019531 26.296875 C 57.65625 25.617188 57.261719 24.960938 56.835938 24.324219 C 56.40625 23.683594 55.949219 23.070312 55.464844 22.476562 C 54.976562 21.882812 54.460938 21.3125 53.917969 20.769531 C 53.375 20.226562 52.808594 19.714844 52.214844 19.226562 C 51.621094 18.738281 51.003906 18.28125 50.367188 17.855469 C 49.726562 17.429688 49.070312 17.035156 48.394531 16.671875 C 47.714844 16.308594 47.023438 15.980469 46.3125 15.6875 C 45.605469 15.394531 44.882812 15.132812 44.148438 14.910156 C 43.414062 14.6875 42.671875 14.5 41.917969 14.351562 C 41.164062 14.199219 40.40625 14.085938 39.640625 14.011719 C 38.878906 13.933594 38.113281 13.894531 37.34375 13.894531 Z M 37.34375 13.894531 " fill-opacity="1" fill-rule="nonzero"/></g><path fill="#ffffff" d="M 37.34375 59.121094 C 36.632812 59.121094 35.921875 59.085938 35.210938 59.015625 C 34.5 58.945312 33.796875 58.839844 33.097656 58.703125 C 32.398438 58.5625 31.707031 58.390625 31.023438 58.183594 C 30.339844 57.976562 29.671875 57.734375 29.011719 57.460938 C 28.351562 57.1875 27.707031 56.882812 27.078125 56.546875 C 26.449219 56.210938 25.839844 55.847656 25.246094 55.449219 C 24.652344 55.054688 24.082031 54.628906 23.53125 54.175781 C 22.980469 53.722656 22.453125 53.246094 21.949219 52.742188 C 21.441406 52.238281 20.964844 51.710938 20.511719 51.160156 C 20.058594 50.605469 19.636719 50.035156 19.238281 49.441406 C 18.84375 48.847656 18.476562 48.238281 18.140625 47.609375 C 17.804688 46.980469 17.5 46.335938 17.226562 45.675781 C 16.953125 45.019531 16.714844 44.347656 16.507812 43.664062 C 16.300781 42.984375 16.128906 42.292969 15.988281 41.59375 C 15.847656 40.894531 15.746094 40.1875 15.675781 39.480469 C 15.605469 38.769531 15.570312 38.058594 15.570312 37.34375 C 15.570312 36.632812 15.605469 35.921875 15.675781 35.210938 C 15.746094 34.5 15.847656 33.796875 15.988281 33.097656 C 16.128906 32.398438 16.300781 31.707031 16.507812 31.023438 C 16.714844 30.339844 16.953125 29.671875 17.226562 29.011719 C 17.5 28.351562 17.804688 27.707031 18.140625 27.078125 C 18.476562 26.449219 18.84375 25.839844 19.238281 25.246094 C 19.636719 24.652344 20.058594 24.082031 20.511719 23.53125 C 20.964844 22.980469 21.441406 22.453125 21.949219 21.949219 C 22.453125 21.441406 22.980469 20.964844 23.53125 20.511719 C 24.082031 20.058594 24.652344 19.636719 25.246094 19.238281 C 25.839844 18.84375 26.449219 18.476562 27.078125 18.140625 C 27.707031 17.804688 28.351562 17.5 29.011719 17.226562 C 29.671875 16.953125 30.339844 16.714844 31.023438 16.507812 C 31.707031 16.300781 32.398438 16.128906 33.097656 15.988281 C 33.796875 15.847656 34.5 15.746094 35.210938 15.675781 C 35.921875 15.605469 36.632812 15.570312 37.34375 15.570312 C 38.058594 15.570312 38.769531 15.605469 39.480469 15.675781 C 40.1875 15.746094 40.894531 15.847656 41.59375 15.988281 C 42.292969 16.128906 42.984375 16.300781 43.664062 16.507812 C 44.347656 16.714844 45.019531 16.953125 45.675781 17.226562 C 46.335938 17.5 46.980469 17.804688 47.609375 18.140625 C 48.238281 18.476562 48.847656 18.84375 49.441406 19.238281 C 50.035156 19.636719 50.605469 20.058594 51.160156 20.511719 C 51.710938 20.964844 52.238281 21.441406 52.742188 21.949219 C 53.246094 22.453125 53.722656 22.980469 54.175781 23.53125 C 54.628906 24.082031 55.054688 24.652344 55.449219 25.246094 C 55.847656 25.839844 56.210938 26.449219 56.546875 27.078125 C 56.882812 27.707031 57.1875 28.351562 57.460938 29.011719 C 57.734375 29.671875 57.976562 30.339844 58.183594 31.023438 C 58.390625 31.707031 58.5625 32.398438 58.703125 33.097656 C 58.839844 33.796875 58.945312 34.5 59.015625 35.210938 C 59.085938 35.921875 59.121094 36.632812 59.121094 37.34375 C 59.117188 38.058594 59.082031 38.769531 59.011719 39.476562 C 58.941406 40.1875 58.835938 40.890625 58.695312 41.589844 C 58.558594 42.289062 58.382812 42.980469 58.175781 43.664062 C 57.96875 44.34375 57.730469 45.015625 57.457031 45.671875 C 57.183594 46.332031 56.878906 46.976562 56.542969 47.605469 C 56.203125 48.234375 55.839844 48.84375 55.441406 49.4375 C 55.046875 50.027344 54.621094 50.601562 54.167969 51.152344 C 53.71875 51.703125 53.238281 52.230469 52.734375 52.734375 C 52.230469 53.238281 51.703125 53.71875 51.152344 54.167969 C 50.601562 54.621094 50.027344 55.046875 49.4375 55.441406 C 48.84375 55.839844 48.234375 56.203125 47.605469 56.542969 C 46.976562 56.878906 46.332031 57.183594 45.671875 57.457031 C 45.015625 57.730469 44.34375 57.96875 43.664062 58.175781 C 42.980469 58.382812 42.289062 58.558594 41.589844 58.695312 C 40.890625 58.835938 40.1875 58.941406 39.476562 59.011719 C 38.769531 59.082031 38.058594 59.117188 37.34375 59.121094 Z M 37.34375 17.246094 C 36.6875 17.246094 36.03125 17.277344 35.375 17.339844 C 34.71875 17.40625 34.070312 17.503906 33.421875 17.632812 C 32.777344 17.757812 32.140625 17.917969 31.511719 18.109375 C 30.878906 18.300781 30.261719 18.523438 29.652344 18.773438 C 29.042969 19.027344 28.449219 19.308594 27.871094 19.617188 C 27.289062 19.929688 26.726562 20.265625 26.175781 20.632812 C 25.628906 20.996094 25.101562 21.390625 24.59375 21.808594 C 24.085938 22.226562 23.597656 22.667969 23.132812 23.132812 C 22.667969 23.597656 22.226562 24.085938 21.808594 24.59375 C 21.390625 25.101562 20.996094 25.628906 20.632812 26.175781 C 20.265625 26.726562 19.929688 27.289062 19.617188 27.871094 C 19.308594 28.449219 19.027344 29.042969 18.773438 29.652344 C 18.523438 30.261719 18.300781 30.878906 18.109375 31.511719 C 17.917969 32.140625 17.757812 32.777344 17.632812 33.421875 C 17.503906 34.070312 17.40625 34.71875 17.339844 35.375 C 17.277344 36.03125 17.246094 36.6875 17.246094 37.34375 C 17.246094 38.003906 17.277344 38.660156 17.339844 39.316406 C 17.40625 39.96875 17.503906 40.621094 17.632812 41.265625 C 17.757812 41.910156 17.917969 42.550781 18.109375 43.179688 C 18.300781 43.808594 18.523438 44.429688 18.773438 45.035156 C 19.027344 45.644531 19.308594 46.238281 19.617188 46.820312 C 19.929688 47.398438 20.265625 47.964844 20.632812 48.511719 C 20.996094 49.058594 21.390625 49.585938 21.808594 50.097656 C 22.226562 50.605469 22.667969 51.09375 23.132812 51.558594 C 23.597656 52.023438 24.085938 52.464844 24.59375 52.882812 C 25.101562 53.300781 25.628906 53.691406 26.175781 54.058594 C 26.726562 54.421875 27.289062 54.761719 27.871094 55.070312 C 28.449219 55.382812 29.042969 55.664062 29.652344 55.914062 C 30.261719 56.167969 30.878906 56.386719 31.511719 56.578125 C 32.140625 56.769531 32.777344 56.929688 33.421875 57.058594 C 34.070312 57.1875 34.71875 57.285156 35.375 57.347656 C 36.03125 57.414062 36.6875 57.445312 37.34375 57.445312 C 38.003906 57.445312 38.660156 57.414062 39.316406 57.347656 C 39.96875 57.285156 40.621094 57.1875 41.265625 57.058594 C 41.910156 56.929688 42.550781 56.769531 43.179688 56.578125 C 43.808594 56.386719 44.429688 56.167969 45.035156 55.914062 C 45.644531 55.664062 46.238281 55.382812 46.820312 55.070312 C 47.398438 54.761719 47.964844 54.421875 48.511719 54.058594 C 49.058594 53.691406 49.585938 53.300781 50.097656 52.882812 C 50.605469 52.464844 51.09375 52.023438 51.558594 51.558594 C 52.023438 51.09375 52.464844 50.605469 52.882812 50.097656 C 53.300781 49.585938 53.691406 49.058594 54.058594 48.511719 C 54.421875 47.964844 54.761719 47.398438 55.070312 46.820312 C 55.382812 46.238281 55.664062 45.644531 55.914062 45.035156 C 56.167969 44.429688 56.386719 43.808594 56.578125 43.179688 C 56.769531 42.550781 56.929688 41.910156 57.058594 41.265625 C 57.1875 40.621094 57.285156 39.96875 57.347656 39.316406 C 57.414062 38.660156 57.445312 38.003906 57.445312 37.34375 C 57.445312 36.6875 57.410156 36.03125 57.347656 35.375 C 57.28125 34.71875 57.183594 34.070312 57.054688 33.425781 C 56.925781 32.78125 56.765625 32.140625 56.574219 31.511719 C 56.382812 30.882812 56.160156 30.265625 55.910156 29.65625 C 55.65625 29.046875 55.375 28.453125 55.0625 27.875 C 54.753906 27.292969 54.414062 26.730469 54.050781 26.183594 C 53.683594 25.636719 53.292969 25.109375 52.875 24.601562 C 52.457031 24.089844 52.015625 23.605469 51.550781 23.136719 C 51.085938 22.671875 50.597656 22.230469 50.089844 21.8125 C 49.582031 21.398438 49.054688 21.003906 48.507812 20.640625 C 47.960938 20.273438 47.394531 19.933594 46.816406 19.625 C 46.234375 19.316406 45.640625 19.03125 45.03125 18.78125 C 44.425781 18.527344 43.804688 18.308594 43.175781 18.117188 C 42.546875 17.925781 41.910156 17.765625 41.265625 17.632812 C 40.617188 17.503906 39.96875 17.410156 39.3125 17.34375 C 38.660156 17.277344 38.003906 17.246094 37.34375 17.246094 Z M 37.34375 17.246094 " fill-opacity="1" fill-rule="nonzero"/><path fill="#ffffff" d="M 49.070312 39.019531 C 49.070312 37.273438 46.675781 35.886719 42.503906 35.222656 C 42.277344 35.191406 42.074219 35.246094 41.894531 35.378906 C 41.710938 35.515625 41.601562 35.695312 41.566406 35.917969 C 41.53125 36.140625 41.578125 36.347656 41.707031 36.53125 C 41.839844 36.71875 42.015625 36.832031 42.238281 36.875 C 46.09375 37.492188 47.394531 38.605469 47.394531 39.019531 C 47.394531 39.652344 45.15625 40.914062 40.695312 41.363281 L 40.695312 32.320312 L 44.882812 32.320312 C 45.328125 32.320312 45.753906 32.234375 46.164062 32.066406 C 46.574219 31.894531 46.9375 31.652344 47.25 31.339844 C 47.566406 31.023438 47.808594 30.660156 47.976562 30.25 C 48.148438 29.839844 48.230469 29.414062 48.230469 28.96875 C 48.230469 28.527344 48.148438 28.097656 47.976562 27.6875 C 47.808594 27.277344 47.566406 26.914062 47.25 26.601562 C 46.9375 26.285156 46.574219 26.042969 46.164062 25.875 C 45.753906 25.703125 45.328125 25.621094 44.882812 25.621094 L 29.808594 25.621094 C 29.363281 25.621094 28.9375 25.703125 28.523438 25.875 C 28.113281 26.042969 27.753906 26.285156 27.4375 26.601562 C 27.125 26.914062 26.882812 27.277344 26.710938 27.6875 C 26.542969 28.097656 26.457031 28.527344 26.457031 28.96875 C 26.457031 29.414062 26.542969 29.839844 26.710938 30.25 C 26.882812 30.660156 27.125 31.023438 27.4375 31.339844 C 27.753906 31.652344 28.113281 31.894531 28.523438 32.066406 C 28.9375 32.234375 29.363281 32.320312 29.808594 32.320312 L 33.996094 32.320312 L 33.996094 41.363281 C 29.535156 40.914062 27.292969 39.652344 27.292969 39.019531 C 27.292969 38.605469 28.59375 37.492188 32.453125 36.875 C 32.675781 36.832031 32.851562 36.71875 32.980469 36.53125 C 33.109375 36.347656 33.15625 36.140625 33.121094 35.917969 C 33.085938 35.695312 32.976562 35.515625 32.796875 35.378906 C 32.613281 35.246094 32.410156 35.191406 32.1875 35.222656 C 28.011719 35.886719 25.621094 37.273438 25.621094 39.019531 C 25.621094 41.40625 29.8125 42.644531 33.996094 43.046875 L 33.996094 49.070312 C 33.996094 49.515625 34.078125 49.941406 34.25 50.351562 C 34.417969 50.761719 34.660156 51.125 34.976562 51.4375 C 35.289062 51.753906 35.652344 51.996094 36.0625 52.164062 C 36.472656 52.335938 36.902344 52.417969 37.34375 52.417969 C 37.789062 52.417969 38.214844 52.335938 38.625 52.164062 C 39.035156 51.996094 39.398438 51.753906 39.714844 51.4375 C 40.027344 51.125 40.269531 50.761719 40.441406 50.351562 C 40.609375 49.941406 40.695312 49.515625 40.695312 49.070312 L 40.695312 43.046875 C 44.882812 42.644531 49.070312 41.40625 49.070312 39.019531 Z M 29.808594 30.644531 C 29.585938 30.644531 29.371094 30.601562 29.167969 30.515625 C 28.960938 30.433594 28.78125 30.3125 28.621094 30.152344 C 28.464844 29.996094 28.34375 29.816406 28.257812 29.609375 C 28.175781 29.40625 28.132812 29.191406 28.132812 28.96875 C 28.132812 28.746094 28.175781 28.535156 28.257812 28.328125 C 28.34375 28.125 28.464844 27.941406 28.621094 27.785156 C 28.78125 27.628906 28.960938 27.507812 29.167969 27.421875 C 29.371094 27.335938 29.585938 27.292969 29.808594 27.292969 L 44.882812 27.292969 C 45.105469 27.292969 45.316406 27.335938 45.523438 27.421875 C 45.726562 27.507812 45.910156 27.628906 46.066406 27.785156 C 46.222656 27.941406 46.34375 28.125 46.429688 28.328125 C 46.515625 28.535156 46.558594 28.746094 46.558594 28.96875 C 46.558594 29.191406 46.515625 29.40625 46.429688 29.609375 C 46.34375 29.816406 46.222656 29.996094 46.066406 30.152344 C 45.910156 30.3125 45.726562 30.433594 45.523438 30.515625 C 45.316406 30.601562 45.105469 30.644531 44.882812 30.644531 L 39.855469 30.644531 C 39.625 30.644531 39.429688 30.726562 39.265625 30.890625 C 39.101562 31.054688 39.019531 31.25 39.019531 31.480469 L 39.019531 41.46875 C 37.902344 41.527344 36.785156 41.527344 35.667969 41.46875 L 35.667969 31.480469 C 35.667969 31.25 35.589844 31.054688 35.425781 30.890625 C 35.261719 30.726562 35.0625 30.644531 34.832031 30.644531 Z M 37.34375 50.746094 C 37.121094 50.746094 36.910156 50.703125 36.703125 50.617188 C 36.5 50.53125 36.316406 50.410156 36.160156 50.253906 C 36.003906 50.097656 35.882812 49.914062 35.796875 49.710938 C 35.710938 49.503906 35.667969 49.292969 35.667969 49.070312 L 35.667969 43.160156 C 36.230469 43.1875 36.792969 43.207031 37.34375 43.207031 C 37.898438 43.207031 38.457031 43.1875 39.019531 43.160156 L 39.019531 49.070312 C 39.019531 49.292969 38.976562 49.503906 38.890625 49.710938 C 38.808594 49.914062 38.6875 50.097656 38.527344 50.253906 C 38.371094 50.410156 38.191406 50.53125 37.984375 50.617188 C 37.78125 50.703125 37.566406 50.746094 37.34375 50.746094 Z M 37.34375 50.746094 " fill-opacity="1" fill-rule="nonzero"/></svg>